<?xml version="1.0" encoding="UTF-8"?>
<svg xmlns="http://www.w3.org/2000/svg" style="display: none;">
    
    <!-- Trust Icon -->
    <symbol id="icon-trust" viewBox="0 0 24 24" fill="none">
        <path d="M20 13c0 5-3.5 7.5-7.66 8.95a1 1 0 0 1-.67-.01C7.5 20.5 4 18 4 13V6a1 1 0 0 1 1-1c2 0 4.5-1.2 6.24-2.72a1.17 1.17 0 0 1 1.52 0C14.51 3.81 17 5 19 5a1 1 0 0 1 1 1z" 
              stroke="#0052FF" 
              stroke-width="2" 
              stroke-linecap="round" 
              stroke-linejoin="round"/>
    </symbol>

    <!-- Flexible Icon -->
    <symbol id="icon-flexible" viewBox="0 0 24 24" fill="none">
        <path d="M3 12a9 9 0 0 1 9-9 9.75 9.75 0 0 1 6.74 2.74L21 8" 
              stroke="#0052FF" 
              stroke-width="2" 
              stroke-linecap="round" 
              stroke-linejoin="round"/>
        <path d="M21 3v5h-5" 
              stroke="#0052FF" 
              stroke-width="2" 
              stroke-linecap="round" 
              stroke-linejoin="round"/>
        <path d="M21 12a9 9 0 0 1-9 9 9.75 9.75 0 0 1-6.74-2.74L3 16" 
              stroke="#0052FF" 
              stroke-width="2" 
              stroke-linecap="round" 
              stroke-linejoin="round"/>
        <path d="M8 16H3v5" 
              stroke="#0052FF" 
              stroke-width="2" 
              stroke-linecap="round" 
              stroke-linejoin="round"/>
    </symbol>

    <!-- Community Icon -->
    <symbol id="icon-community" viewBox="0 0 24 24" fill="none">
        <path d="M16 21v-2a4 4 0 0 0-4-4H6a4 4 0 0 0-4 4v2" 
              stroke="#0052FF" 
              stroke-width="2" 
              stroke-linecap="round" 
              stroke-linejoin="round"/>
        <circle cx="9" cy="7" r="4" 
                stroke="#0052FF" 
                stroke-width="2" 
                stroke-linecap="round" 
                stroke-linejoin="round"/>
        <path d="M22 21v-2a4 4 0 0 0-3-3.87" 
              stroke="#0052FF" 
              stroke-width="2" 
              stroke-linecap="round" 
              stroke-linejoin="round"/>
        <path d="M16 3.13a4 4 0 0 1 0 7.75" 
              stroke="#0052FF" 
              stroke-width="2" 
              stroke-linecap="round" 
              stroke-linejoin="round"/>
    </symbol>

    <!-- Plus Icon -->
    <symbol id="icon-plus" viewBox="0 0 24 24" fill="none">
        <path d="M12 4V20M4 12H20" 
              stroke="#0052FF" 
              stroke-width="2" 
              stroke-linecap="round" 
              stroke-linejoin="round"/>
    </symbol>

    <!-- Star Icon -->
    <symbol id="icon-star" viewBox="0 0 24 24" fill="none">
        <path d="M12 2L15.09 8.26L22 9.27L17 14.14L18.18 21.02L12 17.77L5.82 21.02L7 14.14L2 9.27L8.91 8.26L12 2Z" 
              stroke="#0052FF" 
              stroke-width="2" 
              stroke-linecap="round" 
              stroke-linejoin="round"/>
    </symbol>

</svg> 